HIERARCHY
ROOT Hips
{
	OFFSET 0.00000 0.00000 0.00000
	CHANNELS 6 Xposition Yposition Zposition Zrotation Yrotation Xrotation 
	JOINT LHipJoint
	{
		OFFSET 0 0 0
		CHANNELS 3 Zrotation Yrotation Xrotation
		JOINT LeftUpLeg
		{
			OFFSET 1.62067 -1.77917 0.70989
			CHANNELS 3 Zrotation Yrotation Xrotation
			JOINT LeftLeg
			{
				OFFSET 2.34532 -6.44371 0.00000
				CHANNELS 3 Zrotation Yrotation Xrotation
				JOINT LeftFoot
				{
					OFFSET 2.74224 -7.53425 0.00000
					CHANNELS 3 Zrotation Yrotation Xrotation
					JOINT LeftToeBase
					{
						OFFSET 0.17032 -0.46794 2.08086
						CHANNELS 3 Zrotation Yrotation Xrotation
						End Site
						{
							OFFSET 0.00000 -0.00000 1.07476
						}
					}
				}
			}
		}
	}
	JOINT RHipJoint
	{
		OFFSET 0 0 0
		CHANNELS 3 Zrotation Yrotation Xrotation
		JOINT RightUpLeg
		{
			OFFSET -1.55811 -1.77917 0.70989
			CHANNELS 3 Zrotation Yrotation Xrotation
			JOINT RightLeg
			{
				OFFSET -2.33243 -6.40830 0.00000
				CHANNELS 3 Zrotation Yrotation Xrotation
				JOINT RightFoot
				{
					OFFSET -2.78798 -7.65993 0.00000
					CHANNELS 3 Zrotation Yrotation Xrotation
					JOINT RightToeBase
					{
						OFFSET -0.22707 -0.62388 2.04059
						CHANNELS 3 Zrotation Yrotation Xrotation
						End Site
						{
							OFFSET -0.00000 -0.00000 1.07030
						}
					}
				}
			}
		}
	}
	JOINT LowerBack
	{
		OFFSET 0 0 0
		CHANNELS 3 Zrotation Yrotation Xrotation
		JOINT Spine
		{
			OFFSET 0.02203 1.91565 0.07161
			CHANNELS 3 Zrotation Yrotation Xrotation
			JOINT Spine1
			{
				OFFSET 0.01740 1.90525 0.11636
				CHANNELS 3 Zrotation Yrotation Xrotation
				JOINT Neck
				{
					OFFSET 0 0 0
					CHANNELS 3 Zrotation Yrotation Xrotation
					JOINT Neck1
					{
						OFFSET -0.10841 1.83566 0.05067
						CHANNELS 3 Zrotation Yrotation Xrotation
						JOINT Head
						{
							OFFSET 0.06601 1.74760 -0.50505
							CHANNELS 3 Zrotation Yrotation Xrotation
							End Site
							{
								OFFSET 0.03102 1.85215 -0.17697
							}
						}
					}
				}
				JOINT LeftShoulder
				{
					OFFSET 0 0 0
					CHANNELS 3 Zrotation Yrotation Xrotation
					JOINT LeftArm
					{
						OFFSET 2.87059 1.35470 0.16111
						CHANNELS 3 Zrotation Yrotation Xrotation
						JOINT LeftForeArm
						{
							OFFSET 5.43592 -0.00000 0.00000
							CHANNELS 3 Zrotation Yrotation Xrotation
							JOINT LeftHand
							{
								OFFSET 3.25460 -0.00000 0.00000
								CHANNELS 3 Zrotation Yrotation Xrotation
								JOINT LeftFingerBase
								{
									OFFSET 0 0 0
									CHANNELS 3 Zrotation Yrotation Xrotation
									JOINT LeftHandIndex1
									{
										OFFSET 0.49824 -0.00000 0.00000
										CHANNELS 3 Zrotation Yrotation Xrotation
										End Site
										{
											OFFSET 0.40170 -0.00000 0.00000
										}
									}
								}
								JOINT LThumb
								{
									OFFSET 0 0 0
									CHANNELS 3 Zrotation Yrotation Xrotation
									End Site
									{
										OFFSET 0.40783 -0.00000 0.40783
									}
								}
							}
						}
					}
				}
				JOINT RightShoulder
				{
					OFFSET 0 0 0
					CHANNELS 3 Zrotation Yrotation Xrotation
					JOINT RightArm
					{
						OFFSET -2.86643 1.23488 0.45957
						CHANNELS 3 Zrotation Yrotation Xrotation
						JOINT RightForeArm
						{
							OFFSET -5.33830 -0.00000 0.00000
							CHANNELS 3 Zrotation Yrotation Xrotation
							JOINT RightHand
							{
								OFFSET -3.23148 -0.00000 0.00000
								CHANNELS 3 Zrotation Yrotation Xrotation
								JOINT RightFingerBase
								{
									OFFSET 0 0 0
									CHANNELS 3 Zrotation Yrotation Xrotation
									JOINT RightHandIndex1
									{
										OFFSET -0.46364 -0.00000 0.00000
										CHANNELS 3 Zrotation Yrotation Xrotation
										End Site
										{
											OFFSET -0.37380 -0.00000 0.00000
										}
									}
								}
								JOINT RThumb
								{
									OFFSET 0 0 0
									CHANNELS 3 Zrotation Yrotation Xrotation
									End Site
									{
										OFFSET -0.37951 -0.00000 0.37951
									}
								}
							}
						}
					}
				}
			}
		}
	}
}
MOTION
Frames: 8
Frame Time: .0083333
3.9169 16.5577 0.3490 3.7549 1.4494 8.9169 0.0000 0.0000 0.0000 -30.8912 -13.0116 -25.2137 5.5027 13.9285 42.9519 1.5275 5.1040 -25.6689 0.1805 2.7367 7.5466 0.0000 0.0000 0.0000 2.6817 24.4675 -47.3069 -15.1849 -19.4348 75.7931 -0.2541 2.2090 10.5971 -4.0838 12.2711 -36.6977 0.0332 3.2522 -5.3443 -3.8405 4.4873 0.6302 -3.5978 2.2803 3.9609 5.4137 7.8641 0.9104 7.6570 9.8997 57.8023 5.6256 5.6609 26.5070 -0.0000 0.0000 0.0000 -83.3895 -9.4933 38.7787 31.9696 -42.5229 -12.7203 -0.0000 0.0000 -77.1509 36.5802 -12.9486 -9.4416 -7.1250 0.0000 -0.0000 6.2825 14.0707 -4.5948 -0.0000 0.0000 0.0000 90.3413 -5.3401 30.3266 -47.8224 52.0786 -24.4456 0.0000 -0.0000 -48.1993 -4.1475 -45.6548 2.9686 7.1250 -0.0000 -0.0000 51.1626 -69.3927 -32.7368
3.9194 16.5566 0.3507 3.7040 1.4200 8.9728 0.0000 0.0000 0.0000 -30.8351 -12.9588 -25.2981 5.4998 13.9255 42.9398 1.5315 5.0417 -25.6635 0.1775 2.7135 7.4821 0.0000 0.0000 0.0000 2.6483 24.5730 -47.3828 -15.1788 -19.4333 75.7748 -0.2628 1.8812 10.5607 -3.8548 11.9647 -35.6070 0.0659 3.3127 -5.3761 -3.8397 4.5639 0.5522 -3.6085 2.3182 3.9054 5.3261 7.8131 0.9246 7.8504 9.7517 57.8601 5.7465 5.6018 26.5438 -0.0000 0.0000 0.0000 -83.3553 -9.2761 38.7239 31.8271 -42.4089 -12.6240 -0.0000 0.0000 -77.0068 37.2172 -13.2643 -9.8854 -7.1250 0.0000 -0.0000 6.6587 13.5709 -4.9446 -0.0000 0.0000 0.0000 90.4168 -5.6537 30.0124 -48.0465 52.1766 -24.6224 0.0000 -0.0000 -48.1045 -5.5604 -50.0320 4.2670 7.1250 -0.0000 -0.0000 60.8343 -72.2087 -43.5521
3.9215 16.5551 0.3512 3.7118 1.5305 9.0334 0.0000 0.0000 0.0000 -30.8321 -13.0316 -25.3558 5.5065 13.9324 42.9673 1.5321 4.9894 -25.6388 0.1687 2.6457 7.2940 0.0000 0.0000 0.0000 2.5755 24.5012 -47.4610 -15.1866 -19.4352 75.7980 -0.2645 1.7028 10.4902 -3.6995 11.7494 -34.8510 -0.1248 3.2394 -5.4679 -3.7038 4.4752 0.5698 -3.3632 2.2677 3.9431 4.9970 7.8359 0.8674 8.0422 9.7568 57.8954 5.9293 5.5480 26.5184 -0.0000 0.0000 0.0000 -83.5551 -9.1684 38.3847 31.7034 -42.3095 -12.5407 -0.0000 0.0000 -77.0269 38.5511 -13.2788 -10.3725 -7.1250 0.0000 -0.0000 7.5389 13.2936 -5.6536 -0.0000 0.0000 0.0000 90.2532 -5.7963 29.9146 -48.1029 52.2011 -24.6670 0.0000 -0.0000 -48.0376 -5.3527 -49.1082 4.0514 7.1250 -0.0000 -0.0000 58.4520 -71.7024 -40.9898
3.9244 16.5517 0.3495 3.8560 1.5709 9.1081 0.0000 0.0000 0.0000 -30.9774 -13.0501 -25.4767 5.5228 13.9494 43.0350 1.5365 4.8987 -25.6220 0.1768 2.7082 7.4675 0.0000 0.0000 0.0000 2.3270 24.4194 -47.6053 -15.2038 -19.4393 75.8499 -0.2628 1.8240 10.5285 -3.7358 11.8003 -35.0290 -0.3971 3.1943 -5.5396 -3.6480 4.4341 0.6226 -3.1514 2.2406 4.0102 4.9071 7.8455 0.8460 7.9277 9.8353 57.8376 5.8727 5.5555 26.4385 0.0000 0.0000 0.0000 -83.7053 -9.1960 38.0883 31.5500 -42.1855 -12.4376 -0.0000 0.0000 -77.0017 39.0950 -13.3963 -10.6613 -7.1250 0.0000 -0.0000 7.8775 13.0381 -5.9550 0.0000 0.0000 0.0000 90.1474 -5.7911 29.8208 -47.8424 52.0874 -24.4613 0.0000 -0.0000 -48.0103 -5.3520 -44.7787 3.7754 7.1250 -0.0000 -0.0000 48.2318 -69.2449 -30.4103
3.9243 16.5416 0.3462 3.9413 1.4763 9.1755 0.0000 0.0000 0.0000 -31.0437 -12.9585 -25.6911 5.5414 13.9687 43.1123 1.5404 4.8184 -25.6070 0.1927 2.8268 7.7968 0.0000 0.0000 0.0000 2.1287 24.5181 -47.7878 -15.2287 -19.4452 75.9245 -0.2626 1.8944 10.5636 -3.7653 11.8414 -35.1731 -0.4974 3.2276 -5.5035 -3.6812 4.4849 0.5993 -3.1277 2.2639 3.9636 4.9503 7.8520 0.8332 7.8498 9.8809 57.8327 5.8281 5.5748 26.4574 -0.0000 -0.0000 0.0000 -83.7093 -9.2092 37.8917 31.3278 -42.0047 -12.2887 -0.0000 0.0000 -76.9111 38.6327 -13.4143 -10.5040 -7.1250 0.0000 -0.0000 7.5704 13.1104 -5.7070 -0.0000 -0.0000 0.0000 90.1569 -5.7782 29.7076 -47.3618 51.8744 -24.0827 0.0000 -0.0000 -48.0804 -10.1309 -53.4426 8.1678 7.1250 -0.0000 -0.0000 69.2445 -75.1444 -54.2939
3.9230 16.5330 0.3459 3.9579 1.4414 9.1997 0.0000 0.0000 0.0000 -31.0426 -12.8304 -25.8412 5.5558 13.9836 43.1718 1.5400 4.7541 -25.5694 0.1893 2.8024 7.7292 0.0000 0.0000 0.0000 2.0695 24.5832 -47.8649 -15.2522 -19.4507 75.9952 -0.2573 1.9197 10.4837 -3.7624 11.8373 -35.1587 -0.3761 3.2943 -5.1482 -3.8186 4.5539 0.3737 -3.3586 2.3009 3.5544 4.9697 7.8490 0.8598 8.1705 9.7603 58.0111 6.0490 5.5442 26.6642 0.0000 -0.0000 0.0000 -83.5231 -8.9589 37.8090 31.0966 -41.8150 -12.1342 -0.0000 0.0000 -76.9963 37.7840 -13.2663 -10.0873 -7.1250 0.0000 -0.0000 7.0341 13.4599 -5.2441 0.0000 -0.0000 0.0000 90.3929 -6.0935 29.4220 -47.0343 51.7270 -23.8254 0.0000 -0.0000 -48.0374 -10.9048 -58.3946 9.3181 7.1250 -0.0000 -0.0000 88.5668 -75.9106 -73.9915
3.9266 16.5345 0.3530 3.9860 1.5023 9.2156 0.0000 0.0000 0.0000 -31.0995 -12.7705 -25.7975 5.5564 13.9842 43.1743 1.5450 4.6672 -25.5591 0.1772 2.7118 7.4773 0.0000 0.0000 0.0000 2.0385 24.4933 -47.8271 -15.2578 -19.4521 76.0119 -0.2504 1.9871 10.3959 -3.7452 11.8133 -35.0748 -0.0621 3.3953 -4.6327 -4.0874 4.6549 0.0246 -3.8458 2.3560 2.9578 5.0409 7.8148 0.9127 8.7366 9.4929 58.3106 6.4306 5.4751 27.0369 -0.0000 -0.0000 0.0000 -83.1224 -8.4508 37.9695 30.9549 -41.6980 -12.0399 -0.0000 0.0000 -77.0990 37.7470 -13.2711 -10.0776 -7.1250 0.0000 -0.0000 7.0088 13.4611 -5.2248 -0.0000 -0.0000 0.0000 90.8895 -6.6085 28.9245 -46.7698 51.6066 -23.6179 0.0000 -0.0000 -47.8584 -5.8993 -47.7555 4.3741 7.1250 -0.0000 -0.0000 54.5243 -71.1968 -37.2417
3.9305 16.5364 0.3590 4.0004 1.5832 9.2085 0.0000 0.0000 0.0000 -31.1553 -12.7567 -25.6432 5.5395 13.9667 43.1043 1.5521 4.5672 -25.5586 0.1736 2.6839 7.4000 0.0000 0.0000 0.0000 2.0369 24.3726 -47.7520 -15.2535 -19.4511 75.9992 -0.2467 2.0621 10.3717 -3.7413 11.8080 -35.0561 0.1713 3.4631 -4.3787 -4.2654 4.7274 -0.1462 -4.1768 2.3949 2.6784 5.1603 7.7740 0.9825 9.0066 9.3158 58.4511 6.5905 5.4427 27.2217 0.0000 -0.0000 0.0000 -82.8572 -8.0793 38.0301 30.8097 -41.5774 -11.9434 -0.0000 0.0000 -76.9039 38.8932 -13.2094 -10.4447 -7.1250 0.0000 -0.0000 7.7758 13.3102 -5.8319 0.0000 -0.0000 0.0000 91.2471 -6.9699 28.5234 -46.5045 51.4846 -23.4101 0.0000 -0.0000 -47.8060 -2.8800 -35.9942 1.6935 7.1250 -0.0000 -0.0000 36.8645 -62.1413 -16.5614
